<!--?xml version="1.0" standalone="no"?-->
              <svg id="sw-js-blob-svg" viewBox="0 0 100 100" xmlns="http://www.w3.org/2000/svg" version="1.1">
                    <defs> 
                        <linearGradient id="sw-gradient" x1="0" x2="1" y1="1" y2="0">
                            <stop id="stop1" stop-color="rgba(248, 117, 55, 1)" offset="0%"></stop>
                            <stop id="stop2" stop-color="rgba(251, 168, 31, 1)" offset="100%"></stop>
                        </linearGradient>
                    </defs>
                <path fill="url(#sw-gradient)" d="M22.4,-35.8C29.2,-34.9,34.8,-29.1,39,-22.4C43.1,-15.6,45.7,-7.8,42.6,-1.8C39.5,4.2,30.6,8.4,24.5,11.7C18.4,15.1,15,17.7,11.4,23.7C7.8,29.8,3.9,39.3,-1.6,42.1C-7.1,44.8,-14.2,40.8,-17.1,34.4C-20.1,27.9,-18.9,19.1,-18.2,13C-17.6,6.8,-17.3,3.4,-21.1,-2.2C-24.8,-7.7,-32.5,-15.5,-31.2,-18.1C-29.9,-20.8,-19.6,-18.4,-12.9,-19.3C-6.2,-20.3,-3.1,-24.5,2.4,-28.6C7.8,-32.7,15.7,-36.7,22.4,-35.8Z" width="100%" height="100%" transform="translate(50 50)" stroke-width="0" style="transition: all 0.3s ease 0s;"></path>
              </svg>