<!--?xml version="1.0" standalone="no"?-->
              <svg id="sw-js-blob-svg" viewBox="0 0 100 100" xmlns="http://www.w3.org/2000/svg" version="1.1">
                    <defs> 
                        <linearGradient id="sw-gradient" x1="0" x2="1" y1="1" y2="0">
                            <stop id="stop1" stop-color="rgba(248, 117, 55, 1)" offset="0%"></stop>
                            <stop id="stop2" stop-color="rgba(251, 168, 31, 1)" offset="100%"></stop>
                        </linearGradient>
                    </defs>
                <path fill="url(#sw-gradient)" d="M22.3,-34.2C29.8,-29.9,37.3,-25.2,40.6,-18.4C44,-11.6,43.2,-2.8,41.4,5.6C39.7,14,37.1,21.9,31.6,26.3C26.1,30.7,17.8,31.6,10.4,32.3C3.1,33,-3.5,33.5,-11,33.2C-18.6,33,-27.3,32.1,-31.5,27.3C-35.7,22.4,-35.4,13.7,-35.1,5.9C-34.9,-1.9,-34.7,-8.8,-33.2,-16.4C-31.7,-24.1,-28.9,-32.4,-23.2,-37.4C-17.5,-42.5,-8.7,-44.2,-0.6,-43.2C7.4,-42.2,14.9,-38.4,22.3,-34.2Z" width="100%" height="100%" transform="translate(50 50)" stroke-width="0" style="transition: all 0.3s ease 0s;"></path>
              </svg>